<?xml version="1.0" encoding="utf-8"?>
<!-- Generator: Adobe Illustrator 19.0.0, SVG Export Plug-In . SVG Version: 6.00 Build 0)  -->
<!DOCTYPE svg PUBLIC "-//W3C//DTD SVG 1.1//EN" "http://www.w3.org/Graphics/SVG/1.1/DTD/svg11.dtd">
<svg version="1.1" id="Layer_1" xmlns="http://www.w3.org/2000/svg" xmlns:xlink="http://www.w3.org/1999/xlink" x="0px" y="0px"
	 viewBox="-152.1 24.3 86.1 86.1" style="enable-background:new -152.1 24.3 86.1 86.1;" xml:space="preserve">
<style type="text/css">
	.st0{fill:#2ECC71;}
</style>
<path class="st0" d="M-66,67.3c0-6-2.4-11.3-6.3-15.2c0-5.5-2.1-10.9-6.3-15.1c-4.2-4.2-9.6-6.3-15.1-6.3c-3.9-4-9.4-6.5-15.4-6.5
	s-11.5,2.5-15.4,6.5c-5.5,0-10.9,2.1-15.1,6.3c-4.2,4.2-6.3,9.6-6.3,15.1c-3.9,3.9-6.3,9.3-6.3,15.2c0,5.9,2.4,11.3,6.3,15.2
	c0,5.6,2.1,11.1,6.3,15.4c4.2,4.2,9.8,6.3,15.4,6.3c3.9,3.8,9.2,6.1,15.1,6.1c5.9,0,11.2-2.3,15.1-6.1c5.6,0,11.2-2.1,15.4-6.3
	c4.2-4.2,6.3-9.8,6.3-15.4C-68.4,78.7-66,73.3-66,67.3z M-82.8,64.3c-3.4-2.1-7.3-3.1-11.2-3.1c2.8-2.7,4.8-6.2,5.8-10.2
	c0.2,0,0.4,0,0.7,0c3.7,0,7.1,1.3,9.9,3.3c-0.4,3.5-2,6.8-4.6,9.5C-82.4,64-82.6,64.1-82.8,64.3z M-82.3,71.2
	c2.6,2.6,4.1,5.8,4.6,9.2c-2.7,2.1-6.1,3.3-9.8,3.3c-0.2,0-0.4,0-0.7,0c-0.9-3.8-2.9-7.1-5.5-9.8c3.8,0,7.6-1.1,10.9-3.1
	C-82.6,70.9-82.4,71-82.3,71.2z M-92.7,88.9c0,3.8-1.3,7.2-3.4,10c-3.4-0.5-6.6-2-9.2-4.6c-0.2-0.2-0.3-0.3-0.4-0.5
	c2.1-3.4,3.1-7.3,3.1-11.2c2.7,2.7,6.2,4.7,10,5.6C-92.7,88.4-92.7,88.6-92.7,88.9z M-121.9,98.9c-2.1-2.8-3.4-6.2-3.4-10
	c0-0.2,0-0.4,0-0.7c3.8-1,7.3-2.9,10-5.6c0,3.9,1,7.8,3.1,11.2c-0.2,0.2-0.3,0.3-0.4,0.5C-115.3,96.9-118.6,98.4-121.9,98.9z
	 M-130.6,83.7c-3.7,0-7.1-1.2-9.8-3.3c0.5-3.4,2-6.6,4.6-9.2c0.2-0.2,0.3-0.3,0.5-0.4c3.3,2,7.1,3,10.9,3.1
	c-2.6,2.7-4.5,6.1-5.5,9.8C-130.1,83.6-130.3,83.7-130.6,83.7z M-135.8,63.8c-2.7-2.7-4.2-6-4.6-9.5c2.7-2.1,6.2-3.3,9.9-3.3
	c0.2,0,0.4,0,0.7,0c1,3.9,3,7.4,5.8,10.2c-3.9,0-7.8,1-11.2,3.1C-135.5,64.1-135.7,64-135.8,63.8z M-125.4,45.8c0-3.6,1.2-7,3.2-9.7
	c3.4,0.4,6.8,2,9.4,4.6c0.2,0.2,0.3,0.3,0.4,0.5c-2,3.3-3,7.1-3.1,10.9c-2.7-2.7-6.2-4.7-10-5.6C-125.3,46.2-125.4,46-125.4,45.8z
	 M-95.9,36.1c2,2.7,3.2,6.1,3.2,9.7c0,0.2,0,0.4,0,0.7c-3.8,1-7.3,2.9-10,5.6c0-3.8-1.1-7.5-3.1-10.9c0.2-0.2,0.3-0.3,0.4-0.5
	C-102.7,38.1-99.4,36.6-95.9,36.1z M-102.4,60.7c1.6-3.7,4.6-6.7,8.3-8.3C-95.8,56.1-98.7,59.1-102.4,60.7z M-109,58.1
	c-1.5-3.8-1.5-8,0-11.7C-107.6,50.2-107.6,54.4-109,58.1z M-115.7,60.7c-3.7-1.6-6.7-4.6-8.3-8.3C-120.3,54.1-117.3,57-115.7,60.7z
	 M-118.4,67.5c-3.8,1.5-8,1.5-11.7,0C-126.4,66-122.2,66-118.4,67.5z M-115.7,73.9c-1.6,3.7-4.6,6.7-8.3,8.3
	C-122.3,78.6-119.4,75.6-115.7,73.9z M-109,76.9c1.4,3.8,1.4,8,0,11.7C-110.5,84.8-110.5,80.6-109,76.9z M-102.4,74
	c3.7,1.6,6.7,4.6,8.3,8.3C-97.8,80.6-100.8,77.6-102.4,74z M-99.7,67.5c3.8-1.5,8-1.5,11.7,0C-91.7,69-95.9,69-99.7,67.5z
	 M-82.3,40.7c2.1,2.1,3.5,4.6,4.2,7.3c-2.9-1.4-6-2.2-9.4-2.2c0-3.3-0.8-6.5-2.1-9.3C-86.9,37.2-84.4,38.6-82.3,40.7z M-100.6,31.9
	c-3.1,1-6,2.7-8.5,5.2c-2.5-2.5-5.4-4.2-8.5-5.2c2.5-1.5,5.4-2.4,8.5-2.4S-103.1,30.4-100.6,31.9z M-135.8,40.7
	c2.1-2.1,4.7-3.5,7.4-4.2c-1.4,2.8-2.1,6-2.1,9.3c-3.4,0-6.6,0.8-9.4,2.2C-139.3,45.3-137.9,42.8-135.8,40.7z M-146.9,67.3
	c0-3,0.8-5.8,2.2-8.2c1,3.1,2.7,5.9,5.2,8.4c-2.4,2.4-4.1,5.2-5.1,8.2C-146,73.2-146.9,70.4-146.9,67.3z M-140.1,86.6
	c2.9,1.4,6.1,2.2,9.5,2.2c0,3.5,0.8,6.8,2.3,9.7c-2.8-0.7-5.4-2.1-7.6-4.3C-138,92.1-139.4,89.4-140.1,86.6z M-109,105.2
	c-3,0-5.7-0.8-8.1-2.2c3-1,5.7-2.7,8.1-5.1c2.4,2.4,5.1,4,8.1,5.1C-103.3,104.4-106.1,105.2-109,105.2z M-82.3,94.3
	c-2.2,2.2-4.8,3.6-7.6,4.3c1.5-2.9,2.3-6.2,2.3-9.7c3.4,0,6.7-0.8,9.5-2.2C-78.7,89.4-80.1,92.1-82.3,94.3z M-78.6,67.5
	c2.4-2.4,4.1-5.3,5.2-8.4c1.4,2.4,2.2,5.2,2.2,8.2c0,3.1-0.9,5.9-2.3,8.3C-74.5,72.7-76.2,69.9-78.6,67.5z"/>
</svg>
